<?xml version="1.0" ?><!DOCTYPE svg  PUBLIC '-//W3C//DTD SVG 1.1//EN'  'http://www.w3.org/Graphics/SVG/1.1/DTD/svg11.dtd'><svg enable-background="new 0 0 66 66" id="Layer_1" version="1.1" viewBox="0 0 66 66" xml:space="preserve" xmlns="http://www.w3.org/2000/svg" xmlns:xlink="http://www.w3.org/1999/xlink"><g><g><rect fill="#FCD462" height="64" width="64" x="1" y="1"/><rect fill="#F6C358" height="8" width="64" x="1" y="57"/></g><g><circle cx="33" cy="33" fill="#DC8744" r="5.8"/><path d="M49.5,27.2H36.9c1.9,1.3,3.1,3.4,3.1,5.8c0,2-1.1,4.5-2.3,5.8c-2.5,2.6-9.8,10.9-9.8,10.9    c1.6,0.5,3.4,0.8,5.2,0.8c9.7,0,17.5-7.8,17.5-17.5C50.5,31,50.1,29,49.5,27.2z" fill="#DC8744"/><path d="M26,34.2c-1.1-3.3-6.3-12.6-6.3-12.6c-2.6,3.1-4.2,7-4.2,11.4c0,7.5,4.2,13.9,10.8,16.4l9-9.8    C34.6,39.8,33.8,40,33,40C29.5,40,27.2,37.7,26,34.2z" fill="#DC8744"/><path d="M26.3,31.2c0.8-3,3.5-5.2,6.7-5.2h16c-2.7-6.2-8.9-10.5-16-10.5c-4.7,0-9,1.9-12.1,4.9L26.3,31.2z" fill="#DC8744"/></g></g></svg>