<?xml version="1.0" ?><svg height="512" id="Layer_1" version="1.1" viewBox="0 0 512 512" width="512" xml:space="preserve" xmlns="http://www.w3.org/2000/svg" xmlns:cc="http://creativecommons.org/ns#" xmlns:dc="http://purl.org/dc/elements/1.1/" xmlns:inkscape="http://www.inkscape.org/namespaces/inkscape" xmlns:rdf="http://www.w3.org/1999/02/22-rdf-syntax-ns#" xmlns:sodipodi="http://sodipodi.sourceforge.net/DTD/sodipodi-0.dtd" xmlns:svg="http://www.w3.org/2000/svg"><defs id="defs12"/><g id="g3297"><rect height="512" id="rect2987" rx="64" ry="64" style="fill:#3b5998;fill-opacity:1;fill-rule:nonzero;stroke:none" width="512" x="0" y="0"/><path d="m 437.81787,129.60878 h -111.4757 c -20.84,-11.48446 -44.8134,-18.05335 -70.3423,-18.05335 -25.5289,0 -49.50225,6.56889 -70.35116,18.05335 h -38.74226 c 0,-9.9289 -8.18223,-18.05335 -18.18224,-18.05335 H 92.355292 c -9.99089,0 -18.177573,8.12 -18.177573,18.05335 l 0,0 c -9.99112,0 -18.17779,8.13334 -18.17779,18.05335 v 216.67575 c 0,9.92 8.18667,18.05779 18.18224,18.05779 H 185.64871 c 20.84891,11.47556 44.82226,18.0489 70.35116,18.0489 25.5289,0 49.5023,-6.57334 70.3423,-18.05335 h 111.4757 c 9.9955,0 18.1822,-8.13334 18.1822,-18.05779 v -216.6713 c 0,-9.92001 -8.1867,-18.05335 -18.1822,-18.05335 z M 74.182169,364.33788 V 147.66213 h 18.177573 36.368918 31.28892 C 129.75977,174.12882 110.54642,212.79996 110.54642,256 c 0,43.20004 19.20891,81.87118 49.46671,108.33788 H 74.182169 z m 247.120001,0 c -9.3733,5.58667 -19.5334,10.01778 -30.2578,13.08001 -0.6445,0.17777 -1.2756,0.31555 -1.9022,0.49333 -4.3511,1.18222 -8.8178,2.08445 -13.3512,2.78667 -1.24,0.20889 -2.4844,0.42222 -3.7511,0.58222 -5.2489,0.66667 -10.5955,1.11111 -16.0444,1.11111 -5.4489,0 -10.8,-0.44444 -16.0534,-1.11111 -1.2578,-0.16 -2.5022,-0.37333 -3.7422,-0.58222 -4.5333,-0.70222 -9,-1.60445 -13.3511,-2.78667 -0.6267,-0.17778 -1.2667,-0.31556 -1.9023,-0.49333 -10.7244,-3.06223 -20.87997,-7.49779 -30.25776,-13.08001 C 153.61757,342.25341 128.72421,302.05337 128.72421,256 c 0,-46.05337 24.89336,-86.25341 61.96895,-108.33787 9.37334,-5.58668 19.53335,-10.01779 30.25781,-13.08002 0.6355,-0.17777 1.2756,-0.32 1.9022,-0.49333 4.3511,-1.16445 8.8,-2.08445 13.3334,-2.78667 1.2577,-0.20889 2.5155,-0.42222 3.7822,-0.58222 5.2533,-0.66667 10.5956,-1.11111 16.0311,-1.11111 5.4311,0 10.7822,0.44444 16.0311,1.11111 1.2623,0.16 2.52,0.37333 3.7823,0.58222 4.5333,0.70222 8.9822,1.62222 13.3333,2.78667 0.6267,0.17333 1.2578,0.31556 1.9022,0.49333 10.7245,3.06223 20.8801,7.49779 30.2578,13.08002 37.0667,22.08446 61.969,62.2845 61.969,108.33787 0,46.05337 -24.9023,86.25341 -61.9734,108.33788 z m 116.5157,0 h -85.8312 c 30.2533,-26.4667 49.4667,-65.13784 49.4667,-108.33788 0,-43.20004 -19.2089,-81.87118 -49.4667,-108.33787 h 85.8356 V 364.33788 z M 356.01777,256 h -15.3911 c 0,-46.34226 -37.9645,-84.04008 -84.6268,-84.04008 v -15.28445 c 55.1467,-0.004 100.0179,44.56004 100.0179,99.32453 z" id="Photobucket" style="fill:#ffffff;fill-opacity:1"/></g></svg>