<svg width="500" height="500" xmlns="http://www.w3.org/2000/svg">

 <g>
  <title>background</title>
  <rect fill="none" id="canvas_background" height="402" width="582" y="-1" x="-1"/>
 </g>
 <g>
  <title>Layer 1</title>
  <path fill="#3b5998" fill-rule="nonzero" id="rect2995" d="m50,0c-27.7,0 -50,22.3 -50,50l0,400c0,27.7 22.3,50 50,50l400,0c27.7,0 50,-22.3 50,-50l0,-400c0,-27.7 -22.3,-50 -50,-50l-400,0zm200.84375,104.375l0.1875,0c0,0 82.30656,-0.00367 137.1875,4.25c7.66152,0.9439 24.394,1.04056 39.3125,17.6875c11.75582,12.69972 15.5625,41.53125 15.5625,41.53125c0,0 3.9375,33.86099 3.9375,67.71875l0,31.71875c0,33.85776 -3.9375,67.6875 -3.9375,67.6875c0,0 -3.81894,28.85604 -15.5625,41.53125c-14.9185,16.64693 -31.65098,16.73808 -39.3125,17.71875c-54.88094,4.20464 -137.28125,4.34375 -137.28125,4.34375c0,0 -101.94321,-0.97579 -133.3125,-4.1875c-8.728,-1.74069 -28.31925,-1.25932 -43.25,-17.90625c-11.75582,-12.6752 -15.59375,-41.5 -15.59375,-41.5c0,0 -3.90625,-33.81749 -3.90625,-67.6875l0,-31.75c0,-33.8455 3.90625,-67.6875 3.90625,-67.6875c0,0 3.85018,-28.83153 15.59375,-41.53125c14.93075,-16.64694 31.61974,-16.7436 39.28125,-17.6875c54.86869,-4.25367 137.1875,-4.25 137.1875,-4.25zm-48.875,73.53125l0,147.125l122.59375,-73.5625l-122.59375,-73.5625z"/>
 </g>
</svg>