<?xml version="1.0" ?><svg height="500" id="svg2" version="1.1" width="500" xmlns="http://www.w3.org/2000/svg" xmlns:cc="http://creativecommons.org/ns#" xmlns:dc="http://purl.org/dc/elements/1.1/" xmlns:inkscape="http://www.inkscape.org/namespaces/inkscape" xmlns:rdf="http://www.w3.org/1999/02/22-rdf-syntax-ns#" xmlns:sodipodi="http://sodipodi.sourceforge.net/DTD/sodipodi-0.dtd" xmlns:svg="http://www.w3.org/2000/svg"><defs id="defs4"/><g id="layer1" transform="translate(0,-552.36218)"><rect height="500" id="rect3758" style="fill:#15913b;fill-opacity:1;stroke:none" width="500" x="0" y="552.36218"/><path d="M 0,1052.3622 z" id="path3795" style="opacity:0.25;fill:#000000;fill-opacity:1;stroke:none"/><g id="g3764"><g id="g3761"><path d="m 333.28125,769.39343 c 16.11856,0 21.78125,18.28397 21.78125,27.75 -4.75445,0 -18.86022,-5.28125 -27.5,-5.28125 -5.52239,0 -11.18544,1.40625 -14.25,1.40625 0,-11.24049 8.70441,-23.875 19.96875,-23.875 z" id="rect3764" style="opacity:0.25;fill:#000000;fill-opacity:1;stroke:none"/><path d="m 393.09375,661.17468 -0.0312,0.0312 C 326.91338,710.86032 172.7027,824.07028 120.4375,857.73723 l 194.59375,194.62497 184.96875,0 0,-284.28127 z" id="path2991" style="opacity:0.3;fill:#000000;stroke:none"/><path d="m 166.34375,622.67468 c 0,0 -22.34392,32.51468 -26.61761,36.36669 -6.94803,6.26248 -22.57068,17.483 -39.69489,30.32086 l 9.40625,9.40625 0.0625,0 c 20.27297,5.54859 47.25629,2.2515 70.53122,2.46144 -3.71778,-15.31716 8.29275,-55.16667 -4.21872,-69.08639 l -9.46875,-9.46875 z" id="path2992" style="opacity:0.3;fill:#000000;stroke:none"/></g></g><path d="M 223.03125 60 C 221.96442 60.0121 220.90074 60.0427 219.8125 60.0625 C 214.58894 60.15878 209.03734 60.43835 202.6875 60.8125 C 193.08723 61.3782 174.90625 72.52672 174.90625 84.46875 L 174.90625 131.46875 C 174.90625 136.70769 167.23891 144.625 162 144.625 C 146.3218 144.625 128.66969 144.71875 117.3125 144.71875 C 108.79103 144.71875 98.10291 151.89811 94.125 159.34375 C 91.394549 164.45445 91.04011 175.66603 91.09375 183.3125 C 95.730917 222.06285 103.28621 260.74185 115.4375 297.5625 C 117.78858 304.68668 124.05631 308.84088 130.125 312.0625 C 144.66692 319.7822 219.66874 332.83155 227.125 332.46875 C 238.82361 333.09744 245.61749 315.63249 249.40625 295.09375 C 250.6204 288.51186 249.9355 268.85258 250.8125 267.09375 C 251.22064 266.27523 253.07724 266.29979 253.53125 267.09375 C 254.48201 268.75647 253.97608 282.44311 255.125 289.4375 C 256.28906 296.524 262.31849 309.65088 277.625 313.59375 C 294.64315 317.97747 309.86993 318.12488 326.0625 321.34375 C 345.78212 325.26376 348.125 354.43575 348.125 359.5625 L 348.125 384.09375 C 348.125 389.58143 340.62048 401.375 329.3125 401.375 C 317.54208 401.375 307.8414 401.53125 294.75 401.53125 C 287.90785 401.53125 281.25 395.50345 281.25 388.84375 L 281.25 379.96875 C 281.25 375.51214 289.34893 369.71875 295.34375 369.71875 C 301.26875 369.71875 306.0919 369.65625 308.84375 369.65625 L 308.96875 364.3125 C 308.29749 361.80743 308.3125 360.8612 308.3125 357.46875 C 308.3125 354.40483 308.84339 349.43786 310.875 347.40625 C 310.875 345.99174 310.9375 345.70419 310.9375 343.78125 C 305.60186 343.78125 292.11659 343.875 280.84375 343.875 C 276.14744 343.875 270.86559 345.56522 266.8125 347.9375 C 260.50273 351.63062 258.1194 354.46259 253.96875 361.53125 C 251.53155 365.68187 249.125 377.15548 249.125 381.96875 L 249.125 399.3125 C 249.125 404.2436 251.48484 414.78563 254.1875 419.9375 C 256.73034 424.78474 263.19027 430.9479 268.15625 433.25 C 274.6824 436.2754 282.22487 438.62965 286.5 438.84375 C 291.88445 439.11335 310.60548 440.085 323 440 C 332.1054 439.9372 341.73776 439.86775 350.21875 438.59375 C 362.27531 435.59287 368.3996 431.56641 376.125 421.90625 C 379.22311 417.95925 381.30461 413.30635 383.40625 408.75 C 388.17534 398.41065 391.83626 386.49223 394.6875 375.46875 C 402.70502 344.47123 409.55082 283.88259 408.75 251.875 C 408.30289 234.00422 408.54324 217.2716 407.375 199.40625 C 405.57268 171.84427 402.93231 125.71736 398.9375 117 C 395.70769 109.95204 388.90005 104.36078 381.8125 101.21875 C 373.72431 97.63314 356.81809 93.28972 330.96875 90.78125 C 313.91434 89.12626 293.34373 89.75 279.4375 89.75 C 279.4375 80.19934 270.60794 69.24135 260.59375 65.25 C 256.02382 63.42858 249.94255 61.50144 245.21875 61.0625 C 238.50765 60.4389 232.46805 60.0609 226.1875 60 C 225.14075 59.9899 224.09808 59.9879 223.03125 60 z M 166.34375 70.3125 L 100.03125 137 C 100.03125 137 105.69018 133.21875 111.875 133.21875 C 121.33359 133.21875 148.07127 133.3125 156.46875 133.3125 C 159.36602 132.09581 160.55325 131.35493 162 128.96875 L 162 83.875 C 162 78.12153 166.34375 70.3125 166.34375 70.3125 z M 333.28125 217.03125 C 349.39981 217.03125 355.0625 235.31522 355.0625 244.78125 C 350.30805 244.78125 336.20228 239.5 327.5625 239.5 C 322.04011 239.5 316.37706 240.90625 313.3125 240.90625 C 313.3125 229.66576 322.01691 217.03125 333.28125 217.03125 z " id="rect3760" style="fill:#ffffff;fill-opacity:1;stroke:none" transform="translate(0,552.36218)"/></g></svg>