<?xml version="1.0" ?><svg height="512" id="Layer_1" version="1.1" viewBox="0 0 512 512" width="512" xml:space="preserve" xmlns="http://www.w3.org/2000/svg" xmlns:cc="http://creativecommons.org/ns#" xmlns:dc="http://purl.org/dc/elements/1.1/" xmlns:inkscape="http://www.inkscape.org/namespaces/inkscape" xmlns:rdf="http://www.w3.org/1999/02/22-rdf-syntax-ns#" xmlns:sodipodi="http://sodipodi.sourceforge.net/DTD/sodipodi-0.dtd" xmlns:svg="http://www.w3.org/2000/svg"><defs id="defs12"/><g id="g4593"><rect height="512" id="rect2987" style="fill:#7fbd41;fill-opacity:1;fill-rule:nonzero;stroke:none" width="512" x="0" y="5.6843419e-014"/><path d="m 378.39869,119.86166 c -33.7962,-22.350985 -77.262,-34.660985 -122.39872,-34.660985 -45.13821,0 -88.60242,12.31 -122.38632,34.660985 -42.830665,28.32101 -67.390535,70.81102 -67.390535,116.56889 0,45.5991 24.40728,87.94728 66.946595,116.27447 l -28.99308,74.0943 102.60492,-44.12702 c 15.90312,3.28175 32.43976,4.98505 49.21842,4.98505 45.13672,0 88.60252,-12.31 122.39872,-34.65483 42.81819,-28.3241 67.37819,-70.81563 67.37819,-116.57196 0,-45.75941 -24.5583,-88.24788 -67.37819,-116.56889 z M 255.99996,311.74723 c -62.87872,0 -113.85749,-33.71918 -113.85749,-75.31667 0,-41.59751 50.97877,-75.31359 113.85749,-75.31359 62.89113,0 113.87133,33.71608 113.87133,75.31359 0,41.5975 -50.9802,75.31667 -113.87133,75.31667 z" id="path9-0" style="fill:#ffffff"/></g></svg>