<svg xmlns="http://www.w3.org/2000/svg" width="24" height="24" viewBox="0 0 24 24"><path fill="currentColor" d="M3.5 20.61h6v-6h-6v6zm-.5-7.5h7a1 1 0 0 1 1 1v7a1 1 0 0 1-1 1H3a1 1 0 0 1-1-1v-7a1 1 0 0 1 1-1zm11.54-3.5h5.92L17.5 4.06l-2.96 5.55zm7.63.03a1 1 0 0 1-.88 1.47H13.7a1 1 0 0 1-.88-1.47l3.79-7.11a1 1 0 0 1 1.76 0l3.8 7.11zM17.5 20.81a3.2 3.2 0 1 0 0-6.4 3.2 3.2 0 0 0 0 6.4zM4.68 7.4l2 2 3.38-3.37a1.41 1.41 0 1 0-2-2L6.68 5.4 5.32 4.02a1.42 1.42 0 0 0-2 2L4.68 7.4zm-2.12 0l-.3-.31a2.91 2.91 0 1 1 4.12-4.13l.3.31.31-.3a2.92 2.92 0 0 1 4.13 4.12L7.39 10.8a1 1 0 0 1-1.41 0L2.56 7.4zM17.5 22.3a4.7 4.7 0 1 1 0-9.4 4.7 4.7 0 0 1 0 9.4z"></path></svg>